<?xml version="1.0" standalone="no"?>
<!DOCTYPE svg PUBLIC "-//W3C//DTD SVG 20010904//EN"
 "http://www.w3.org/TR/2001/REC-SVG-20010904/DTD/svg10.dtd">
<svg version="1.0" xmlns="http://www.w3.org/2000/svg"
 width="512.000000pt" height="512.000000pt" viewBox="0 0 512.000000 512.000000"
 preserveAspectRatio="xMidYMid meet">
<metadata>
Created by potrace 1.11, written by Peter Selinger 2001-2013
</metadata>
<g transform="translate(0.000000,512.000000) scale(0.100000,-0.100000)"
fill="#000000" stroke="none">
<path d="M0 2560 l0 -2560 2560 0 2560 0 0 2560 0 2560 -2560 0 -2560 0 0
-2560z m2380 740 l0 -920 -740 0 -740 0 0 920 0 920 740 0 740 0 0 -920z
m1840 365 l0 -555 -740 0 -740 0 0 555 0 555 740 0 740 0 0 -555z m0 -1845 l0
-920 -740 0 -740 0 0 920 0 920 740 0 740 0 0 -920z m-1840 -365 l0 -555 -740
0 -740 0 0 555 0 555 740 0 740 0 0 -555z"/>
</g>
</svg>
